<svg height="114pt" viewBox="0.00 0.00 1597.00 114.00" width="1597pt" xmlns="http://www.w3.org/2000/svg" xmlns:xlink="http://www.w3.org/1999/xlink">
<g class="graph" id="graph0" transform="scale(1 1) rotate(0) translate(4 110)">
<polygon fill="white" points="-4,4 -4,-110 1593,-110 1593,4 -4,4" stroke="transparent"/>
<!-- `subject`.`subject__protocol` -->
<g class="node" id="node1">
<title>`subject`.`subject__protocol`</title>
<polygon fill="transparent" points="757.5,-27 617.5,-27 617.5,-8 757.5,-8 757.5,-27" stroke="transparent"/>
<text font-family="arial" font-size="10.00" text-anchor="middle" x="687.5" y="-15">`subject`.`subject__protocol`</text>
</g>
<!-- `subject`.`#allele__source` -->
<g class="node" id="node2">
<title>`subject`.`#allele__source`</title>
<polygon fill="transparent" points="1589,-27 1458,-27 1458,-8 1589,-8 1589,-27" stroke="transparent"/>
<text font-family="arial" font-size="10.00" text-anchor="middle" x="1523.5" y="-15">`subject`.`#allele__source`</text>
</g>
<!-- `subject`.`subject__source` -->
<g class="node" id="node3">
<title>`subject`.`subject__source`</title>
<polygon fill="transparent" points="909.5,-27 775.5,-27 775.5,-8 909.5,-8 909.5,-27" stroke="transparent"/>
<text font-family="arial" font-size="10.00" text-anchor="middle" x="842.5" y="-15">`subject`.`subject__source`</text>
</g>
<!-- `subject`.`#line__allele` -->
<g class="node" id="node4">
<title>`subject`.`#line__allele`</title>
<polygon fill="transparent" points="1439.5,-27 1323.5,-27 1323.5,-8 1439.5,-8 1439.5,-27" stroke="transparent"/>
<text font-family="arial" font-size="10.00" text-anchor="middle" x="1381.5" y="-15">`subject`.`#line__allele`</text>
</g>
<!-- `subject`.`subject__strain` -->
<g class="node" id="node5">
<title>`subject`.`subject__strain`</title>
<polygon fill="transparent" points="129,-27 0,-27 0,-8 129,-8 129,-27" stroke="transparent"/>
<text font-family="arial" font-size="10.00" text-anchor="middle" x="64.5" y="-15">`subject`.`subject__strain`</text>
</g>
<!-- `subject`.`subject__line` -->
<g class="node" id="node6">
<title>`subject`.`subject__line`</title>
<polygon fill="transparent" points="1183.5,-27 1063.5,-27 1063.5,-8 1183.5,-8 1183.5,-27" stroke="transparent"/>
<text font-family="arial" font-size="10.00" text-anchor="middle" x="1123.5" y="-15">`subject`.`subject__line`</text>
</g>
<!-- `subject`.`subject__lab` -->
<g class="node" id="node7">
<title>`subject`.`subject__lab`</title>
<polygon fill="transparent" points="1045.5,-27 927.5,-27 927.5,-8 1045.5,-8 1045.5,-27" stroke="transparent"/>
<text font-family="arial" font-size="10.00" text-anchor="middle" x="986.5" y="-15">`subject`.`subject__lab`</text>
</g>
<!-- `subject`.`subject__user` -->
<g class="node" id="node8">
<title>`subject`.`subject__user`</title>
<polygon fill="transparent" points="271.5,-27 147.5,-27 147.5,-8 271.5,-8 271.5,-27" stroke="transparent"/>
<text font-family="arial" font-size="10.00" text-anchor="middle" x="209.5" y="-15">`subject`.`subject__user`</text>
</g>
<!-- subject.Subject -->
<g class="node" id="node9">
<title>subject.Subject</title>
<g id="a_node9"><a xlink:title="subject              ------------------------------sex                  subject_birth_date   subject_description=&quot;&quot; ">
<polygon fill="#00ff00" fill-opacity="0.188235" points="736.5,-106 638.5,-106 638.5,-71 736.5,-71 736.5,-106" stroke="#00ff00" stroke-opacity="0.188235"/>
<text fill="darkgreen" font-family="arial" font-size="12.00" text-anchor="start" text-decoration="underline" x="646.5" y="-86.4">subject.Subject</text>
</a>
</g>
</g>
<!-- subject.Subject&#45;&gt;`subject`.`subject__protocol` -->
<g class="edge" id="edge4">
<title>subject.Subject-&gt;`subject`.`subject__protocol`</title>
<path d="M687.5,-70.8C687.5,-57.08 687.5,-38.19 687.5,-27.27" fill="none" stroke="#000000" stroke-opacity="0.250980" stroke-width="0.75"/>
</g>
<!-- subject.Subject&#45;&gt;`subject`.`subject__source` -->
<g class="edge" id="edge2">
<title>subject.Subject-&gt;`subject`.`subject__source`</title>
<path d="M724.63,-70.97C755.61,-57.18 798.55,-38.06 823.13,-27.12" fill="none" stroke="#000000" stroke-opacity="0.250980" stroke-width="2"/>
</g>
<!-- subject.Subject&#45;&gt;`subject`.`subject__strain` -->
<g class="edge" id="edge3">
<title>subject.Subject-&gt;`subject`.`subject__strain`</title>
<path d="M638.4,-84.85C542.07,-79.21 321.72,-64.07 138.5,-35 125.37,-32.92 111.08,-29.91 98.59,-27.03" fill="none" stroke="#000000" stroke-opacity="0.250980" stroke-width="2"/>
</g>
<!-- subject.Subject&#45;&gt;`subject`.`subject__line` -->
<g class="edge" id="edge5">
<title>subject.Subject-&gt;`subject`.`subject__line`</title>
<path d="M736.71,-81.93C807.37,-73.6 941.49,-56.55 1054.5,-35 1066.36,-32.74 1079.25,-29.79 1090.64,-27.01" fill="none" stroke="#000000" stroke-opacity="0.250980" stroke-width="2"/>
</g>
<!-- subject.Subject&#45;&gt;`subject`.`subject__lab` -->
<g class="edge" id="edge6">
<title>subject.Subject-&gt;`subject`.`subject__lab`</title>
<path d="M736.67,-76.54C783.46,-66.06 855.84,-49.72 918.5,-35 929.26,-32.47 940.96,-29.66 951.58,-27.08" fill="none" stroke="#000000" stroke-opacity="0.250980" stroke-width="0.75"/>
</g>
<!-- subject.Subject&#45;&gt;`subject`.`subject__user` -->
<g class="edge" id="edge1">
<title>subject.Subject-&gt;`subject`.`subject__user`</title>
<path d="M638.39,-82.77C561.66,-75.02 408.81,-58.13 280.5,-35 268.29,-32.8 255.03,-29.87 243.3,-27.08" fill="none" stroke="#000000" stroke-opacity="0.250980" stroke-width="0.75"/>
</g>
<!-- subject.SubjectDeath -->
<g class="node" id="node10">
<title>subject.SubjectDeath</title>
<g id="a_node10"><a xlink:title="→ subject.Subject------------------------------death_date           ">
<polygon fill="#00ff00" fill-opacity="0.188235" points="421,-35 290,-35 290,0 421,0 421,-35" stroke="#00ff00" stroke-opacity="0.188235"/>
<text fill="darkgreen" font-family="arial" font-size="12.00" text-anchor="middle" x="355.5" y="-14.4">subject.SubjectDeath</text>
</a>
</g>
</g>
<!-- subject.Subject&#45;&gt;subject.SubjectDeath -->
<g class="edge" id="edge7">
<title>subject.Subject-&gt;subject.SubjectDeath</title>
<path d="M638.19,-77.66C586.41,-67.27 502.67,-50.31 430.5,-35 427.5,-34.36 424.43,-33.71 421.34,-33.04" fill="none" stroke="#000000" stroke-opacity="0.250980" stroke-width="2"/>
</g>
<!-- subject.SubjectCullMethod -->
<g class="node" id="node11">
<title>subject.SubjectCullMethod</title>
<g id="a_node11"><a xlink:title="→ subject.Subject------------------------------cull_method          ">
<polygon fill="#00ff00" fill-opacity="0.188235" points="599.5,-35 439.5,-35 439.5,0 599.5,0 599.5,-35" stroke="#00ff00" stroke-opacity="0.188235"/>
<text fill="darkgreen" font-family="arial" font-size="12.00" text-anchor="middle" x="519.5" y="-14.4">subject.SubjectCullMethod</text>
</a>
</g>
</g>
<!-- subject.Subject&#45;&gt;subject.SubjectCullMethod -->
<g class="edge" id="edge8">
<title>subject.Subject-&gt;subject.SubjectCullMethod</title>
<path d="M647.26,-70.97C620.76,-60.09 586.2,-45.89 559.7,-35.01" fill="none" stroke="#000000" stroke-opacity="0.250980" stroke-width="2"/>
</g>
<!-- subject.Zygosity -->
<g class="node" id="node14">
<title>subject.Zygosity</title>
<g id="a_node14"><a xlink:title="→ subject.Subject→ subject.Allele------------------------------zygosity             ">
<polygon fill="#00ff00" fill-opacity="0.188235" points="1305,-35 1202,-35 1202,0 1305,0 1305,-35" stroke="#00ff00" stroke-opacity="0.188235"/>
<text fill="darkgreen" font-family="arial" font-size="12.00" text-anchor="middle" x="1253.5" y="-14.4">subject.Zygosity</text>
</a>
</g>
</g>
<!-- subject.Subject&#45;&gt;subject.Zygosity -->
<g class="edge" id="edge9">
<title>subject.Subject-&gt;subject.Zygosity</title>
<path d="M736.62,-85.02C827.34,-79.86 1026.98,-65.78 1192.5,-35 1195.52,-34.44 1198.61,-33.8 1201.72,-33.11" fill="none" stroke="#000000" stroke-opacity="0.250980" stroke-width="0.75"/>
</g>
<!-- subject.Strain -->
<g class="node" id="node12">
<title>subject.Strain</title>
<g id="a_node12"><a xlink:title="strain               ------------------------------strain_standard_name strain_desc=&quot;&quot;       ">
<polygon fill="#000000" fill-opacity="0.125490" points="103,-106 26,-106 26,-71 103,-71 103,-106" stroke="transparent"/>
<text font-family="arial" font-size="10.00" text-anchor="start" text-decoration="underline" x="34" y="-87">subject.Strain</text>
</a>
</g>
</g>
<!-- subject.Strain&#45;&gt;`subject`.`subject__strain` -->
<g class="edge" id="edge10">
<title>subject.Strain-&gt;`subject`.`subject__strain`</title>
<path d="M64.5,-70.8C64.5,-57.08 64.5,-38.19 64.5,-27.27" fill="none" stroke="#000000" stroke-dasharray="5,2" stroke-opacity="0.250980" stroke-width="0.75"/>
</g>
<!-- subject.Allele -->
<g class="node" id="node13">
<title>subject.Allele</title>
<g id="a_node13"><a xlink:title="allele               ------------------------------allele_standard_name=&quot;&quot; ">
<polygon fill="#000000" fill-opacity="0.125490" points="1419,-106 1344,-106 1344,-71 1419,-71 1419,-106" stroke="transparent"/>
<text font-family="arial" font-size="10.00" text-anchor="start" text-decoration="underline" x="1352" y="-87">subject.Allele</text>
</a>
</g>
</g>
<!-- subject.Allele&#45;&gt;`subject`.`#allele__source` -->
<g class="edge" id="edge12">
<title>subject.Allele-&gt;`subject`.`#allele__source`</title>
<path d="M1415.51,-70.97C1443.9,-57.18 1483.24,-38.06 1505.76,-27.12" fill="none" stroke="#000000" stroke-opacity="0.250980" stroke-width="2"/>
</g>
<!-- subject.Allele&#45;&gt;`subject`.`#line__allele` -->
<g class="edge" id="edge11">
<title>subject.Allele-&gt;`subject`.`#line__allele`</title>
<path d="M1381.5,-70.8C1381.5,-57.08 1381.5,-38.19 1381.5,-27.27" fill="none" stroke="#000000" stroke-opacity="0.250980" stroke-width="0.75"/>
</g>
<!-- subject.Allele&#45;&gt;subject.Zygosity -->
<g class="edge" id="edge13">
<title>subject.Allele-&gt;subject.Zygosity</title>
<path d="M1350.84,-70.97C1330.72,-60.13 1304.51,-46 1284.35,-35.13" fill="none" stroke="#000000" stroke-opacity="0.250980" stroke-width="0.75"/>
</g>
<!-- subject.Line -->
<g class="node" id="node15">
<title>subject.Line</title>
<g id="a_node15"><a xlink:title="line                 ------------------------------line_description=&quot;&quot;  target_phenotype=&quot;&quot;  is_active            ">
<polygon fill="#000000" fill-opacity="0.125490" points="1242,-106 1173,-106 1173,-71 1242,-71 1242,-106" stroke="transparent"/>
<text font-family="arial" font-size="10.00" text-anchor="start" text-decoration="underline" x="1181" y="-87">subject.Line</text>
</a>
</g>
</g>
<!-- subject.Line&#45;&gt;`subject`.`#line__allele` -->
<g class="edge" id="edge14">
<title>subject.Line-&gt;`subject`.`#line__allele`</title>
<path d="M1242.29,-73.7C1277.4,-59.78 1330.51,-38.72 1359.94,-27.05" fill="none" stroke="#000000" stroke-opacity="0.250980" stroke-width="0.75"/>
</g>
<!-- subject.Line&#45;&gt;`subject`.`subject__line` -->
<g class="edge" id="edge15">
<title>subject.Line-&gt;`subject`.`subject__line`</title>
<path d="M1187.17,-70.8C1170.46,-57.08 1147.46,-38.19 1134.17,-27.27" fill="none" stroke="#000000" stroke-dasharray="5,2" stroke-opacity="0.250980" stroke-width="0.75"/>
</g>
</g>
</svg>